# xmcd
#
# Track frame offsets: 
#        150
#        5075
#        21575
#        37050
#        50450
#        81775
#        100587
#        122400
#        132712
#        154500
#        166887
#        198625
#
# Disc length: 3629 seconds
#
# Revision: 1
# Processed by: cddbd v1.5.2PL0 Copyright (c) Steve Scherf et al.
# Submitted via: ExactAudioCopy v0.99pb3
#
DISCID=9d0e2b0c
DTITLE=J-Wave - STILL LIFE
DYEAR=1990
DGENRE=Jazz
TTITLE0=J-WAVE JINGLE
TTITLE1=TIME AFTER TIME
TTITLE2=HEREs THAT RAINY DAY
TTITLE3=WHO CAN I TURN TO
TTITLE4=A REMARK YOU MADE
TTITLE5=SO MANY STARS
TTITLE6=HARVEST TIME
TTITLE7=THE GOOD LIFE
TTITLE8=WHATs NEW
TTITLE9=PINKY
TTITLE10=IN A SENTIMENTAL MOOD
TTITLE11=CONCIERTO DE ARANJUEZ
EXTD=
EXTT0=
EXTT1=
EXTT2=
EXTT3=
EXTT4=
EXTT5=
EXTT6=
EXTT7=
EXTT8=
EXTT9=
EXTT10=
EXTT11=
PLAYORDER=
